<svg xmlns="http://www.w3.org/2000/svg" width="69.419" height="18.865" viewBox="0 0 69.419 18.865">
  <path id="Fill-3" d="M225.985,23.482l2.318-5.658,2.318,5.658Zm.6-10.267-7.475,17.569h3.912l1.594-3.911h7.378l1.594,3.911H237.6l-7.476-17.569Zm-48.414,6.2c0,1.5-1.128,2.659-3.061,2.659h-3.062V16.7h2.986c1.934,0,3.137.929,3.137,2.661Zm-2.81-6.2H168.18V30.784h3.865V25.513h2.935c3.941,0,7.1-2.109,7.1-6.175v-.05C182.085,15.7,179.551,13.215,175.358,13.215Zm27.756,1.962a9.118,9.118,0,0,0-2.776,6.772,9.036,9.036,0,0,0,2.727,6.724,9.324,9.324,0,0,0,6.754,2.659,9.481,9.481,0,0,0,7.361-2.85l.089-.1V20.319h-7.641v3.264h3.986v3.294a7.4,7.4,0,0,1-3.831.926,5.558,5.558,0,0,1-5.666-5.839,5.642,5.642,0,0,1,1.7-4.268,5.92,5.92,0,0,1,4.227-1.624,7.53,7.53,0,0,1,2.316.322,5.772,5.772,0,0,1,1.857,1.074l2.138-2.7a9.483,9.483,0,0,0-6.536-2.3A9.291,9.291,0,0,0,203.114,15.177Zm-14.361,8.581h7.567v-3.44h-7.567V16.652h9.412V13.215H184.912V30.784H198.29V27.346h-9.537V23.758Z" transform="translate(-168.18 -12.467)" fill="#fff" fill-rule="evenodd"/>
</svg>
