<svg xmlns="http://www.w3.org/2000/svg" width="199.776" height="43.181" viewBox="0 0 199.776 43.181">
  <g id="Logo" transform="translate(-0.214 -0.111)">
    <g id="pega_logo_horizontal_positive_rgb" transform="translate(0.214 0.111)">
      <path id="Fill-1" d="M87.891,11.05l-.12-.057a2.282,2.282,0,0,0-2.53.519l-.141.149,2.262,1.109ZM98.247,23.474s-.986,1.765-1.428,2.418a2.57,2.57,0,0,1-3.031.493c-.549-.261-5.682-3.255-7.646-3.083-9.943.867-12.651-3.23-12.971-3.6s-.918-.2-.491.533c2.181,3.74,8.636,5.475,8.636,5.475a24.547,24.547,0,0,1,1.89,6.917,29.087,29.087,0,0,0-5.391-3.313A74.842,74.842,0,0,0,53.661,18.959c.634-8.747,5.047-21.391,25.686-18.4a19.9,19.9,0,0,1,6.9,2.588s-.663.7-1.535,1.566a.833.833,0,0,0,.093,1.426l4.359,3.427a4.861,4.861,0,0,0,1.49,3.962c1.364,1.638,6.667,7.192,7.361,7.935A1.877,1.877,0,0,1,98.247,23.474ZM50.715,6.425a29,29,0,0,0-.447,11.789c-1.036-.206-2.088-.4-3.172-.58C24.509,13.957,17.7,25.09,20.333,34.117A151.067,151.067,0,0,0,.214,43.291C9.079,22.029,28.345,3.315,44.605.856c5.309-.7,6.8,2.744,6.11,5.569Z" transform="translate(-0.214 -0.111)" fill="#fff" fill-rule="evenodd"/>
      <path id="Fill-2" d="M64.67,35.145c8.8-.7,17.106.187,23.97,3.454A74.829,74.829,0,0,0,64.486,28.248,35.152,35.152,0,0,0,64.67,35.145Zm-1.27.111c-9.86.941-21.519,4.122-32.242,8.149-2.637-9.027,4.177-20.16,26.764-16.484,1.084.176,2.135.374,3.171.58A35.786,35.786,0,0,0,63.4,35.256Z" transform="translate(-11.04 -9.399)" fill="rgba(255,255,255,0.5)" fill-rule="evenodd"/>
      <path id="Fill-3" d="M244.461,27l3.058-7.466L250.579,27Zm.788-13.549-9.865,23.184h5.163l2.1-5.162h9.737l2.1,5.162h5.3l-9.865-23.184Zm-63.889,8.181c0,1.985-1.489,3.509-4.039,3.509H173.28V18.058h3.941c2.552,0,4.14,1.226,4.14,3.511Zm-3.708-8.181H168.18V36.638h5.1V29.683h3.874c5.2,0,9.375-2.783,9.375-8.148v-.066C186.529,16.732,183.185,13.454,177.653,13.454Zm36.627,2.589a12.033,12.033,0,0,0-3.664,8.936,11.924,11.924,0,0,0,3.6,8.874,12.3,12.3,0,0,0,8.913,3.508c4.179,0,7.445-1.265,9.714-3.76l.117-.131V22.828H222.876v4.307h5.259v4.346A9.769,9.769,0,0,1,223.08,32.7,7.335,7.335,0,0,1,215.6,25a7.446,7.446,0,0,1,2.244-5.632,7.813,7.813,0,0,1,5.578-2.143,9.937,9.937,0,0,1,3.056.425,7.617,7.617,0,0,1,2.451,1.417l2.821-3.561a12.513,12.513,0,0,0-8.626-3.037A12.261,12.261,0,0,0,214.28,16.043ZM195.328,27.367h9.986V22.828h-9.986V17.989h12.421V13.454H190.26V36.638h17.654V32.1H195.328V27.367Z" transform="translate(-60.011 -4.51)" fill="#fff" fill-rule="evenodd"/>
    </g>
  </g>
</svg>
